<?xml version="1.0"?>
<svg xmlns="http://www.w3.org/2000/svg" id="bold" enable-background="new 0 0 24 24" height="512px" viewBox="0 0 24 24" width="512px" class=""><g><path d="m23 7.62v1.88c0 3.03-2.47 5.5-5.5 5.5s-5.5-2.47-5.5-5.5v-2.5h-1.59c-.06 0-.13-.03-.17-.07l-1.42-1.42c-.33-.33-.77-.51-1.23-.51h-4.84c-1.52 0-2.75 1.23-2.75 2.75v12.5c0 1.52 1.23 2.75 2.75 2.75h18.5c1.52 0 2.75-1.23 2.75-2.75v-10.5c0-.85-.39-1.62-1-2.13z" data-original="#000000" class="active-path" data-old_color="#000000" fill="#508CF7"/><path d="m17.5 13c-1.93 0-3.5-1.57-3.5-3.5v-5.25c0-1.241 1.01-2.25 2.25-2.25s2.25 1.009 2.25 2.25v5c0 .414-.336.75-.75.75s-.75-.336-.75-.75v-5c0-.414-.337-.75-.75-.75s-.75.336-.75.75v5.25c0 1.103.897 2 2 2s2-.897 2-2v-6.75c0-.414.336-.75.75-.75s.75.336.75.75v6.75c0 1.93-1.57 3.5-3.5 3.5z" data-original="#000000" class="active-path" data-old_color="#000000" fill="#508CF7"/></g> </svg>
