<svg id="Capa_1" enable-background="new 0 0 512 512" height="512" viewBox="0 0 512 512" width="512" xmlns="http://www.w3.org/2000/svg"><g><path d="m446.059 58.167c-7.171 0-378.037 0-380.116 0-19.799 0-35.907 16.108-35.907 35.908v269.335c0 17.512 12.977 32.688 30.246 35.455l6.467 5.163h372.924l12.047-5.163c17.269-2.767 30.246-17.943 30.246-35.455 0-8.961 0-261.23 0-269.336 0-19.799-16.108-35.907-35.907-35.907z" fill="#365e7d"/><path d="m64.289 363.41v-269.336c0-19.8 16.108-35.908 35.907-35.908-20.909 0-33.87 0-34.253 0-19.799 0-35.907 16.108-35.907 35.908v269.336c0 17.512 12.977 32.688 30.246 35.455l6.467 5.163h34.253l-6.467-5.163c-17.27-2.767-30.246-17.943-30.246-35.455z" fill="#2b4d66"/><path d="m506.005 398.865h-500.01c-3.311 0-5.995 2.71-5.995 6.054v20.823c0 15.45 12.519 28.091 27.82 28.091h456.36c15.301 0 27.82-12.641 27.82-28.091v-20.823c0-3.344-2.684-6.054-5.995-6.054z" fill="#407093"/><path d="m62.293 425.742v-20.823c0-3.344 2.684-6.054 5.995-6.054h-62.292c-3.311 0-5.995 2.71-5.995 6.054v20.823c0 15.45 12.519 28.091 27.82 28.091h62.293c-15.302 0-27.821-12.641-27.821-28.091z" fill="#365e7d"/><path d="m181.32 398.865v13.97c0 6.866 5.563 12.484 12.363 12.484h124.635c6.8 0 12.363-5.618 12.363-12.484v-13.97z" fill="#5c90b9"/><path d="m243.612 412.835v-13.97h-62.292v13.97c0 6.866 5.563 12.484 12.363 12.484h62.293c-6.8.001-12.364-5.618-12.364-12.484z" fill="#4a80aa"/><path d="m62.293 127.36v233.096c0 3.558 2.884 6.443 6.442 6.443h44.951l2.854-2.706h84.475l3.592 2.706h102.787l2.305-2.706h85.676l2.94 2.706h44.952c3.557 0 6.442-2.885 6.442-6.443 0-2.363 0-226.016 0-233.096-17.012 0-370.41 0-387.416 0z" fill="#e4f6ff"/><path d="m104.17 360.456c0-4.455 0-223.25 0-233.096-23.102 0-38.63 0-41.878 0v233.096c0 3.558 2.884 6.443 6.442 6.443h41.878c-3.558 0-6.442-2.885-6.442-6.443z" fill="#d3effb"/><path d="m371.223 322.793h-36.737c-14.963 0-27.092 12.13-27.092 27.092v17.013h90.921v-17.013c0-14.962-12.13-27.092-27.092-27.092z" fill="#90d8f9"/><circle cx="352.854" cy="299.728" fill="#ffdecf" r="23.066"/><path d="m371.223 203.539h-36.737c-14.963 0-27.092 12.13-27.092 27.092v17.013h90.921v-17.013c0-14.962-12.13-27.092-27.092-27.092z" fill="#ffaa5b"/><circle cx="352.854" cy="180.473" fill="#ffdecf" r="23.066"/><path d="m177.515 322.793h-36.737c-14.963 0-27.092 12.13-27.092 27.092v17.013h90.921v-17.013c0-14.962-12.13-27.092-27.092-27.092z" fill="#b3e59f"/><path d="m372.701 322.835c-.49-.026-.982-.042-1.479-.042h-36.737c-14.962 0-27.092 12.13-27.092 27.092v17.013h39.694v-17.013c.001-14.465 11.34-26.282 25.614-27.05z" fill="#75cef9"/><path d="m178.994 322.835c-.49-.026-.983-.042-1.479-.042h-36.737c-14.962 0-27.092 12.13-27.092 27.092v17.013h39.694v-17.013c0-14.465 11.339-26.282 25.614-27.05z" fill="#95d6a4"/><circle cx="159.146" cy="299.728" fill="#ffdecf" r="23.066"/><path d="m177.515 203.539h-36.737c-14.963 0-27.092 12.13-27.092 27.092v17.013h90.921v-17.013c0-14.962-12.13-27.092-27.092-27.092z" fill="#dd636e"/><path d="m372.701 203.581c-.49-.026-.982-.042-1.479-.042h-36.737c-14.962 0-27.092 12.13-27.092 27.092v17.013h39.694v-17.013c.001-14.466 11.34-26.282 25.614-27.05z" fill="#ff9838"/><path d="m178.994 203.581c-.49-.026-.983-.042-1.479-.042h-36.737c-14.962 0-27.092 12.13-27.092 27.092v17.013h39.694v-17.013c0-14.466 11.339-26.282 25.614-27.05z" fill="#da4a54"/><circle cx="159.146" cy="180.473" fill="#ffdecf" r="23.066"/><g fill="#ffcebe"><path d="m359.61 316.037c-9.008-9.008-9.008-23.612 0-32.62 1.458-1.458 3.073-2.654 4.777-3.64-8.822-5.106-20.293-3.909-27.842 3.64-9.008 9.008-9.008 23.612 0 32.62 7.55 7.55 19.02 8.746 27.842 3.64-1.704-.985-3.319-2.182-4.777-3.64z"/><path d="m359.61 196.783c-9.008-9.008-9.008-23.612 0-32.62 1.458-1.458 3.073-2.654 4.777-3.64-8.822-5.106-20.293-3.909-27.842 3.64-9.008 9.008-9.008 23.612 0 32.62 7.55 7.55 19.02 8.746 27.842 3.64-1.704-.985-3.319-2.182-4.777-3.64z"/><path d="m165.902 316.037c-9.008-9.008-9.008-23.612 0-32.62 1.458-1.458 3.073-2.654 4.777-3.64-8.822-5.106-20.293-3.909-27.842 3.64-9.008 9.008-9.008 23.612 0 32.62 7.55 7.55 19.02 8.746 27.842 3.64-1.703-.985-3.319-2.182-4.777-3.64z"/><path d="m165.902 196.783c-9.008-9.008-9.008-23.612 0-32.62 1.458-1.458 3.073-2.654 4.777-3.64-8.822-5.106-20.293-3.909-27.842 3.64-9.008 9.008-9.008 23.612 0 32.62 7.55 7.55 19.02 8.746 27.842 3.64-1.703-.985-3.319-2.182-4.777-3.64z"/></g><path d="m449.708 239.403h-186.006v-112.043c-5.149 0-10.304 0-15.453 0v112.043h-185.956v15.453h185.957v112.043h15.453v-112.043h186.006c-.001-5.136-.001-10.3-.001-15.453z" fill="#d3effb"/><path d="m104.17 239.403h-41.877v15.453h41.878c-.001-5.136-.001-10.3-.001-15.453z" fill="#b1e4f9"/><path d="m104.17 90.183h-35.436c-3.558 0-6.442 2.885-6.442 6.443v31.765h41.878l1.811-1.482v-34.769z" fill="#dd636e"/><path d="m443.266 90.182c-16.637 0-325.911 0-339.096 0v38.208h345.538v-31.765c0-3.558-2.884-6.443-6.442-6.443z" fill="#b1e4f9"/></g></svg>